<?xml version="1.0" encoding="utf-8"?>
<!-- Generator: Adobe Illustrator 24.1.1, SVG Export Plug-In . SVG Version: 6.00 Build 0)  -->
<svg version="1.1" id="Layer_1" xmlns="http://www.w3.org/2000/svg" xmlns:xlink="http://www.w3.org/1999/xlink" x="0px" y="0px"
	 viewBox="0 0 512 512" style="enable-background:new 0 0 512 512;" xml:space="preserve">
<g>
	<path d="M256,512C114.63,512,0,397.38,0,256C0,114.6,114.63,0,256,0c141.4,0,256,114.6,256,256C512,397.38,397.4,512,256,512z
		 M256,460.8c113.13,0,204.8-91.7,204.8-204.8S369.13,51.2,256,51.2C142.9,51.2,51.2,142.9,51.2,256S142.9,460.8,256,460.8z
		 M209.23,256l90.48,90.52c9.82,10.18,9.55,26.38-0.63,36.2c-9.93,9.57-25.65,9.57-35.55,0L154.9,274.1c-10-10-10-26.2,0-36.2
		l108.63-108.63c10.15-9.82,26.38-9.52,36.18,0.63c9.6,9.93,9.6,25.65,0,35.58L209.23,256z"/>
</g>
</svg>
